<?xml version="1.0" encoding="iso-8859-1"?>
<!-- Generator: Adobe Illustrator 18.0.0, SVG Export Plug-In . SVG Version: 6.00 Build 0)  -->
<!DOCTYPE svg PUBLIC "-//W3C//DTD SVG 1.1//EN" "http://www.w3.org/Graphics/SVG/1.1/DTD/svg11.dtd">
<svg version="1.1" id="Capa_1" xmlns="http://www.w3.org/2000/svg" xmlns:xlink="http://www.w3.org/1999/xlink" x="0px" y="0px"
	fill="#fff" viewBox="0 0 60.015 60.015" style="enable-background:new 0 0 60.015 60.015;" xml:space="preserve">
<g>
	<path d="M42.007,0h-24c-9.925,0-18,8.075-18,18v14c0,9.59,7.538,17.452,17,17.973v8.344c0,0.688,0.411,1.304,1.047,1.568
		c0.211,0.087,0.433,0.13,0.652,0.13c0.44,0,0.873-0.173,1.198-0.498l1.876-1.876C26.708,52.713,33.259,50,40.227,50h1.781
		c9.925,0,18-8.075,18-18V18C60.007,8.075,51.932,0,42.007,0z M58.007,32c0,8.822-7.178,16-16,16h-1.781
		c-7.502,0-14.555,2.921-19.86,8.226l-1.359,1.359V49v-1v-4c0-0.552-0.448-1-1-1s-1,0.448-1,1v3.949c-8.356-0.52-15-7.465-15-15.949
		V18c0-8.822,7.178-16,16-16h24c8.822,0,16,7.178,16,16V32z"/>
	<path d="M17.007,19.015h14c0.552,0,1-0.448,1-1s-0.448-1-1-1h-14c-0.552,0-1,0.448-1,1S16.455,19.015,17.007,19.015z"/>
	<path d="M44.007,25.015h-27c-0.552,0-1,0.448-1,1s0.448,1,1,1h27c0.552,0,1-0.448,1-1S44.56,25.015,44.007,25.015z"/>
	<path d="M44.007,33.015h-27c-0.552,0-1,0.448-1,1s0.448,1,1,1h27c0.552,0,1-0.448,1-1S44.56,33.015,44.007,33.015z"/>
</g>
<g>
</g>
<g>
</g>
<g>
</g>
<g>
</g>
<g>
</g>
<g>
</g>
<g>
</g>
<g>
</g>
<g>
</g>
<g>
</g>
<g>
</g>
<g>
</g>
<g>
</g>
<g>
</g>
<g>
</g>
</svg>
